<svg xmlns="http://www.w3.org/2000/svg" viewBox="0 0 46 46">
<path style="fill:#ff6900" d="M19.78,0C32.63,0,42.51,8.86,42.51,22s-9.88,22.3-22.74,22.3H5.33A5.1,5.1,0,0,1,0,39V5.52A5.25,5.25,0,0,1,5.33,0H19.78Z"></path>
<path d="M34.57,17.23c-0.07.55-.69,0.55-1,0.07-0.9-1.52-2.07-1.8-3.94-1.94-1.39-.07-3,0.07-4.56.07H25l-0.11-.06a0.31,0.31,0,0,1-.11-0.21c0.28-1.31,1.39-3.72,2.56-3.94,0.55-.07,1.8-0.21,2.49-0.21C33,11,34.71,14.67,34.57,17.23Zm-18,12.55a22.11,22.11,0,0,0,7.19.69,19.13,19.13,0,0,0,8.92-2.91c-1,2.64-5,4.28-8.71,4.69,0,0.21-.07.34-0.07,0.55a14.91,14.91,0,0,0,6.77-1.94c-0.69,2.56-4.15,3.6-7.33,3.81a4.09,4.09,0,0,1-.28.55,15.88,15.88,0,0,0,4.64-.62c-1.46,2.7-7.68,4.57-12.93,2.1a16.62,16.62,0,0,0,1.8-6.92h0ZM33.95,11.35a6.07,6.07,0,0,0-4.36-1.66c-2.07,0-3.8.55-6.36,0.62-1.73.07-3.32-3.72-5.39-4.22a2.69,2.69,0,0,0-4.21-1.24c-1.17-.69-3-0.34-3,1-1.31-.41-3,0.28-2.28,2.08-3.25.07-3.8,3-1.66,3.25C3.8,12.74,5.12,15.51,7.47,15c0.42,4.15,2.28,9.55-.76,10.87a8.14,8.14,0,0,1-4.36-.14L0,25.06V27.2A21.34,21.34,0,0,0,6,28c4-.41,4.22-3.72,4-6.64s-1.17-6.16-.83-8.51l-0.14-.14c-1.45,1.52-2.42,1.11-2.56.62C6.31,12.39,8,11.15,9,10.73c0-.07.07-0.14,0.07-0.21-0.9.14-2,0-2.07-.62s1.52-1.52,3.6-1.31c0.07,0,.07-0.07.14-0.07l-0.41-.21a0.72,0.72,0,0,1-.46-1,1.48,1.48,0,0,1,1.24-.46A4.63,4.63,0,0,1,13,7.22c0.07,0,.07-0.07.14-0.07a2.47,2.47,0,0,1-.41-0.41,0.53,0.53,0,0,1,0-.7,1.44,1.44,0,0,1,1.66.28l0.34,0.34h0.11l0.1-.06a0.75,0.75,0,0,1-.21-0.46A0.41,0.41,0,0,1,15,5.57a0.84,0.84,0,0,1,.83.34,3.38,3.38,0,0,1,.41.86A5.74,5.74,0,0,0,12,8.93a6.61,6.61,0,0,0-.83,5.68,40.57,40.57,0,0,0,2,6.23v0.07C14.85,25.68,18,37.44,2.63,43.68a6.33,6.33,0,0,0,2.56.62H6.78a20,20,0,0,0,6.84-5.67c7.05,3.11,13.46,1.52,16.24-3.6A6.77,6.77,0,0,0,33,30a5.19,5.19,0,0,0,1-4.48c-0.07-.28-0.34-0.28-0.76-0.07-5.74,3.46-10.78,4-16.8,2.22a45.53,45.53,0,0,0-.83-5.61c-0.14-2.42.62-3.6,5-2.15a13.71,13.71,0,0,1,5.25,2.79c0.46,0.34,1.1.76,1.45,0.46a1.33,1.33,0,0,0,.28-1,11.58,11.58,0,0,0-1.24-4.36,36.1,36.1,0,0,1,3.94,0,2.23,2.23,0,0,1,2,1.52c0.46,1.39,3.18,1,3.39-.14,0.41-2.42.55-5.61-1.8-7.82h0ZM3.25,32.11a25.44,25.44,0,0,0-3.25,0v1.45c1.86-.41,3-0.62,3-0.62Z"></path>
<path style="fill:#fff" d="M20.54,17c-2.42-.55-5.1-1.25-6.5-3.32,0-.07-0.07-0.07-0.14-0.07l0,0a0.07,0.07,0,0,0,0,0,0.62,0.62,0,0,0,.07.34l-0.21.07a1.39,1.39,0,0,1-.07-1.66,1.78,1.78,0,0,1,2.28-.21l-0.07.21a1.52,1.52,0,0,0-1,.07,0.38,0.38,0,0,0-.2.24,0.38,0.38,0,0,0,.06.31c1.17,2.22,4.64,2.7,8.71,2.36A0.49,0.49,0,0,0,24,15a7.85,7.85,0,0,1,1.93-3.67,10.82,10.82,0,0,1-2,.14c-2.07.14-3.32-.14-3.67-0.41l0.07-.21a0.49,0.49,0,0,0,.46,0,0.26,0.26,0,0,0-.07-0.21c-0.39-.37-2.19-2.23-2.19-2.23C18.32,6.77,16,6.77,15.14,8.29l-0.28-.07a2.33,2.33,0,0,1,.34-0.83A4.35,4.35,0,0,0,12,11.11c-0.83,7.06,9.88,5.4,12.93,8.24,0.07,0.07.21,0.28,0.28,0.14s-1.24-1.8-4.7-2.56v0ZM16.82,8.48a1.67,1.67,0,0,1,1.59,1.11c0.35,0.76.28,1.52-.21,1.73a1.55,1.55,0,0,1-1.61-1.1c-0.07-.14-0.07-0.21-0.14-0.34h0.07A0.46,0.46,0,0,0,17,10a0.52,0.52,0,0,0,0-.69,0.64,0.64,0,0,0-.55-0.41l-0.07-.07a0.93,0.93,0,0,1,.41-0.34"></path>
<path style="fill:#fff" d="M32.7,27.55a19.13,19.13,0,0,1-8.92,2.91,24.42,24.42,0,0,1-7.19-.69,10.59,10.59,0,0,1-.21,2.08,28.73,28.73,0,0,0,6.15.76,10.33,10.33,0,0,1-3,5.26c3.71,0.14,7.12-1.31,8.16-3.25a14.11,14.11,0,0,1-4.64.62c0.07-.21.21-0.34,0.28-0.55,3.18-.14,6.64-1.18,7.33-3.81a14.91,14.91,0,0,1-6.77,1.94c0-.21.07-0.34,0.07-0.55,3.71-.46,7.67-2.08,8.71-4.71"></path>
</svg>
